<?xml version="1.0" encoding="utf-8"?>
<!-- Generator: Adobe Illustrator 26.0.2, SVG Export Plug-In . SVG Version: 6.00 Build 0)  -->
<svg version="1.1" id="レイヤー_1" xmlns="http://www.w3.org/2000/svg" xmlns:xlink="http://www.w3.org/1999/xlink" x="0px"
	 y="0px" viewBox="0 0 299.2 321.7" style="enable-background:new 0 0 299.2 321.7;" xml:space="preserve">
<style type="text/css">
	.st0{fill:#4593A7;}
</style>
<g id="グループ_171" transform="matrix(0.978, -0.208, 0.208, 0.978, 0.001, 62.374)">
	<path id="パス_35" class="st0" d="M21.4,221.2c-57.8-59-56.9-153.7,2.1-211.5S177.1-47.3,235,11.7s56.9,153.7-2.1,211.5
		C193.4,262,135.7,275.8,82.9,259c-5.1-1.6-10.7-1.4-15.6,0.8c-23.9,10.6-49.7,9.1-49.7,9.1c1-0.8,1.9-1.7,2.8-2.5
		c12.7-12,13.4-32,1.4-44.8C21.7,221.5,21.5,221.3,21.4,221.2"/>
</g>
</svg>
