<?xml version="1.0" encoding="utf-8"?>
<!-- Generator: Adobe Illustrator 26.0.2, SVG Export Plug-In . SVG Version: 6.00 Build 0)  -->
<svg version="1.1" id="レイヤー_1" xmlns="http://www.w3.org/2000/svg" xmlns:xlink="http://www.w3.org/1999/xlink" x="0px"
	 y="0px" viewBox="0 0 799.7 697" style="enable-background:new 0 0 799.7 697;" xml:space="preserve">
<style type="text/css">
	.st0{fill:#4593A7;}
	.st1{fill:#DD654A;}
	.st2{fill:#F8997C;}
	.st3{fill:#FDF2D6;}
	.st4{fill:#A1C3FC;}
	.st5{fill:#ADCEE1;}
	.st6{fill:#88D3D8;}
	.st7{fill:#FFFFFF;}
	.st8{fill:#68E1FD;}
	.st9{opacity:0.1;fill:#053855;enable-background:new    ;}
	.st10{opacity:0.32;fill:url(#パス_152_00000140720124323242588720000009514281073691195831_);enable-background:new    ;}
	.st11{fill:#808080;}
	.st12{fill:#5C2D1D;}
	.st13{fill:#A9CBF8;}
	.st14{fill:#4A42A4;}
	.st15{fill:#A6ACED;}
	.st16{fill:#895851;}
	.st17{fill:#8CC63F;}
	.st18{opacity:0.32;fill:url(#パス_168_00000177467152573766337130000006703328509978026151_);enable-background:new    ;}
	.st19{fill:#B3B3B3;}
	.st20{fill:#FFE0CE;}
	.st21{fill:#F9C7AF;}
	.st22{fill:#6D9928;}
	.st23{fill:#64C7E0;}
	.st24{opacity:0.6;fill:#FFFFFF;enable-background:new    ;}
	.st25{fill:#124577;}
	.st26{fill:#FFA513;}
	.st27{fill:#FED230;}
	.st28{fill:#F2F2F2;}
	.st29{fill:none;stroke:#F2F2F2;stroke-miterlimit:10;}
	.st30{fill:none;stroke:#FFFFFF;stroke-miterlimit:10;}
	.st31{opacity:0.32;fill:url(#パス_199_00000096025755995151419750000000080222204631611062_);enable-background:new    ;}
	.st32{opacity:0.25;}
	.st33{fill:#FF7D09;}
	.st34{fill:#9E005D;}
	.st35{fill:#FFB468;}
	.st36{fill:#5FAD00;}
</style>
<g id="グループ_204" transform="translate(-640 174.614)">
	<path id="パス_123" class="st0" d="M1286.5-174.6h153.3v491.8l-213.2,112.9c-157.5,83.8-352.5,24.8-435.6-131.6l-14-26.3
		c-85.7-160.6-23.8-360.7,138.1-446.8H1286.5z"/>
	<g id="SEO_Isometric" transform="translate(594.417 29.916)">
		<path id="パス_127" class="st1" d="M604.8-29.1l7.4-1.7L694,16.3l-1.4,161.1l-3.1,1.8"/>
		<path id="パス_128" class="st2" d="M604.8-29.1l-0.9,159l85.8,49.3V18.7L604.8-29.1z"/>
		<path id="パス_129" class="st3" d="M607.8-20.6v148.2l77.9,43.1V23.5L607.8-20.6z"/>
		<path id="パス_130" class="st2" d="M641.6,10.3v37.8l-24.9-12V4.2"/>
		<path id="パス_131" class="st4" d="M614.7-4.9l26.9,15.3c0,0,1.4,25.2-5.7,32.3l-24.4-12.1C611.4,30.7,619.8,12,614.7-4.9z"/>
		<path id="パス_132" class="st2" d="M676.9,30.5v37.8l-24.9-12V24.3"/>
		<path id="パス_133" class="st4" d="M650.1,15.2l27,15.3c0,0,1.4,25.2-5.7,32.3l-24.4-12.1C646.9,50.7,655.2,32,650.1,15.2z"/>
		<path id="パス_134" class="st2" d="M641.6,61v37.8l-24.9-12V54.9"/>
		<path id="パス_135" class="st4" d="M614.7,45.7L641.6,61c0,0,1.4,25.2-5.7,32.3l-24.4-12.1C611.4,81.2,619.8,62.7,614.7,45.7z"
			/>
		<path id="パス_136" class="st2" d="M676.9,81.1v37.8L652,107V75"/>
		<path id="パス_137" class="st4" d="M650.1,65.8l27,15.1c0,0,1.4,25.2-5.7,32.3l-24.4-12.1C646.9,101.4,655.2,82.6,650.1,65.8z"
			/>
		<path id="パス_138" class="st2" d="M651.7,120.3v21.8l-14.4-6.9v-18.3"/>
		<path id="パス_139" class="st4" d="M636.3,111.7l15.4,8.8c0,0,0.8,14.5-3.3,18.6l-14.1-7C634.3,132,639.1,121.2,636.3,111.7z"/>
		<path id="パス_140" class="st2" d="M673.1,132.4v21.8l-14.4-6.9V129"/>
		<path id="パス_141" class="st4" d="M657.7,123.6l15.4,8.8c0,0,0.8,14.5-3.3,18.6l-14.1-7C655.7,144.1,660.6,133.3,657.7,123.6z"
			/>
		<path id="パス_142" class="st2" d="M630.2,108.7v21.8l-14.4-6.9v-18.3"/>
		<path id="パス_143" class="st4" d="M614.7,99.8l15.4,8.8c0,0,0.8,14.5-3.3,18.6l-14.1-7C612.8,120.3,617.6,109.6,614.7,99.8z"/>
		<path id="パス_144" class="st2" d="M394.2,487.2L711.7,309c7.3-4.1,9.9-13.4,5.9-20.6c-1.3-2.3-3.1-4.2-5.2-5.5L404.5,92.2
			c-4.7-2.9-10.8-3.1-15.7-0.3L53.1,286.8c-7.3,4.2-9.7,13.5-5.5,20.7c1.3,2.3,3.2,4.2,5.5,5.5l299.5,173.7
			C365.5,494.3,381.3,494.4,394.2,487.2L394.2,487.2z"/>
		<path id="パス_145" class="st5" d="M636.5,278v8.9l-4.6,5.5"/>
		<path id="パス_146" class="st6" d="M456.7,169.1l174.6,108.3c5.1,3.2,6.6,9.8,3.4,14.9c-1,1.5-2.3,2.8-3.8,3.7L366,445.9
			c-7.5,4.2-16.8,4.2-24.2-0.3L167.9,343.5c-12.6-10.4-11.7-29.9,0-30.8l263.5-144.1C439.3,164.1,449,164.4,456.7,169.1z"/>
		<path id="パス_147" class="st7" d="M456.7,161.7l174.6,108.2c5.1,3.2,6.6,9.8,3.4,14.9c-1,1.5-2.3,2.8-3.8,3.7L366,438.5
			c-7.5,4.2-16.8,4.2-24.2-0.3l-174-102.2c-6.5-3.7-8.7-12-4.8-18.5c1.1-2,2.8-3.7,4.8-4.8l263.5-151.5
			C439.2,156.7,449,156.9,456.7,161.7z"/>
		<path id="パス_148" class="st8" d="M467.6,186.5l63.9,39.8c3.6,2.3,4.7,7,2.4,10.6c-0.6,1.1-1.7,2-2.7,2.7L302,370.2
			c-7,4.1-15.5,4.1-22.5,0c-14.8-8.7-40-24.1-55.6-33.6c-4.5-2.8-5.7-8.5-3.1-13c0.8-1.3,1.9-2.4,3.2-3.2
			c46.3-27,197.7-114.9,230.6-134.2C458.6,184,463.6,184,467.6,186.5z"/>
		<path id="パス_149" class="st8" d="M464,294.4l-80.1,45.1c-3.8,2.2-5.2,7-3.1,10.9c0.6,1.3,1.7,2.3,2.9,2.9l47.1,27.6
			c3.3,1.9,7.4,1.9,10.7,0l82-46.7c3.2-1.8,4.3-5.9,2.5-9.2c-0.6-1-1.5-1.9-2.5-2.5l-49-28.3C471.2,292.5,467.3,292.5,464,294.4
			L464,294.4z"/>
		<path id="パス_150" class="st9" d="M467.6,186.5l63.9,39.8c3.6,2.3,4.7,7,2.4,10.6c-0.6,1.1-1.7,2-2.7,2.7L302,370.2
			c-7,4.1-15.5,4.1-22.5,0c-14.8-8.7-40-24.1-55.6-33.6c-4.5-2.8-5.7-8.5-3.1-13c0.8-1.3,1.9-2.4,3.2-3.2
			c46.3-27,197.7-114.9,230.6-134.2C458.6,184,463.6,184,467.6,186.5z"/>
		<path id="パス_151" class="st9" d="M464,294.4l-80.1,45.1c-3.8,2.2-5.2,7-3.1,10.9c0.6,1.3,1.7,2.3,2.9,2.9l47.1,27.6
			c3.3,1.9,7.4,1.9,10.7,0l82-46.7c3.2-1.8,4.3-5.9,2.5-9.2c-0.6-1-1.5-1.9-2.5-2.5l-49-28.3C471.2,292.5,467.3,292.5,464,294.4
			L464,294.4z"/>
		
			<linearGradient id="パス_152_00000081612659647474556580000004220833529319084457_" gradientUnits="userSpaceOnUse" x1="590.0854" y1="-2.5805" x2="590.3539" y2="-3.3735" gradientTransform="matrix(187.821 0 0 110.977 -110375.4531 597.4101)">
			<stop  offset="0" style="stop-color:#000000;stop-opacity:0"/>
			<stop  offset="0.99" style="stop-color:#006837"/>
		</linearGradient>
		
			<path id="パス_152" style="opacity:0.32;fill:url(#パス_152_00000081612659647474556580000004220833529319084457_);enable-background:new    ;" d="
			M593.7,275.9l-121.3,74l-117.9-70.4l115.2-70.9"/>
		<path id="パス_153" class="st11" d="M546.3,237.6v54.9h4.1l0.9-56.3"/>
		<path id="パス_154" class="st11" d="M569.5,216.4l8.1,59.6h-4.1l-8.5-57.4"/>
		<path id="パス_155" class="st12" d="M487.5,258.2c0,0-3.8,12.3-4.7,13.6c-0.9,1.3-13.2,9.4-13,12c0.3,2.5,4.8,3.6,7.8,3.3
			c2.9-0.3,19.7-7.3,20.7-9.3c1-2,1-19.7,1-19.7L487.5,258.2z"/>
		<path id="パス_156" class="st12" d="M507.4,272.7c0,0-3.8,12.3-4.7,13.6c-0.9,1.3-13.2,9.4-13,12c0.3,2.5,4.8,3.6,7.8,3.3
			c2.9-0.3,19.7-7.3,20.7-9.3c1-2,1-19.7,1-19.7L507.4,272.7z"/>
		<path id="パス_157" class="st11" d="M571.7,159.7c-1.1,3.1-7,48.8-7,48.8l-6.1-2l7.9-47"/>
		<path id="パス_158" class="st13" d="M569.5,216.4l0.1-7.4l-6.5,2.3l2,7.4"/>
		<path id="パス_159" class="st14" d="M554.6,205c0,0,16.4,6.2,14.8,12.5c-1.7,6.2-14.8,21.4-23,20c-8.4-1.3-18.6-8.7-18.6-8.7"/>
		<path id="パス_160" class="st15" d="M554.6,197.5c0,0,16.4,6.2,14.8,12.5c-1.7,6.2-14.8,21.4-23,20c-8.4-1.3-18.6-8.7-18.6-8.7"
			/>
		<path id="パス_161" class="st15" d="M561.2,140.1c0,0,15.8,3.9,17.4,13.1c1.7,9.2,2,25.8-20.4,19.3
			c-22.5-6.5-11.7-23.4-11.7-23.4"/>
		<path id="パス_162" class="st16" d="M540.1,159.5c0,0,5.6,23.5,1.4,36c-4.2,12.5-27.6,22.7-27.6,22.7l-9.9,50.5
			c-8.3,2.4-17.2,1.3-24.6-2.9c0,0,2.8-44.5,6.9-55.9c4.2-11.3,36.5-33.6,36.5-33.6"/>
		<path id="パス_163" class="st16" d="M541,189.3c0,0-32.3,22.3-36.5,33.6s-6.9,55.9-6.9,55.9c7.5,4.2,16.3,5.2,24.6,2.9l9.9-50.5
			c0,0,16.8-4.7,21-17.3c4.1-12.6,2.3-31.7,2.3-31.7"/>
		<path id="パス_164" class="st17" d="M554,189.8c5.5-13.5,7.9-48.4,4.5-52.6c-7-8.8-22-7.6-22-7.6s-8.7-5.2-15.9,0.9
			c-5.5,4.6-1.5,32.7,0,50.5C529.9,189.8,540.4,192.2,554,189.8z"/>
		<path id="パス_165" class="st12" d="M530.7,193.9c-5.9,5.9-12.1,11.5-17.4,17.7c-4.7,5.3-6.6,12.2-8.4,19
			c-3.8,15.9-6.6,31.9-8,48.2c0,0.4,0.4,0.8,0.8,0.8s0.8-0.4,0.8-0.8c1.5-15.7,4.1-31.2,7.6-46.5c1.9-7.5,3.9-14.9,9.2-20.6
			c5.3-5.7,11.1-11.1,16.7-16.7c0.3-0.4,0.1-0.9-0.1-1.1C531.3,193.6,530.9,193.6,530.7,193.9L530.7,193.9z"/>
		<path id="パス_166" class="st1" d="M594.7,232.3l3.1-1.7l-138.4-79.2l-89.9,51l1.1,0.8v67.3c0.1,0.4,0.4,0.6,0.8,0.5
			c0.3,0,0.5-0.3,0.5-0.5v-66.6l133,77.6l0.4-0.1v48.5c0.1,0.4,0.4,0.6,0.8,0.5c0.3,0,0.5-0.3,0.5-0.5V281l87.1-47.9V276
			c0.1,0.4,0.4,0.6,0.8,0.5c0.3,0,0.5-0.3,0.5-0.5v-43C595.2,232.7,595,232.5,594.7,232.3z"/>
		<path id="パス_167" class="st1" d="M594.7,232.3l3.1-1.7l-138.4-79.2l-89.9,51l1.1,0.8v67.3c0.1,0.4,0.4,0.6,0.8,0.5
			c0.3,0,0.5-0.3,0.5-0.5v-66.6l133,77.6l0.4-0.1v48.5c0.1,0.4,0.4,0.6,0.8,0.5c0.3,0,0.5-0.3,0.5-0.5V281l87.1-47.9V276
			c0.1,0.4,0.4,0.6,0.8,0.5c0.3,0,0.5-0.3,0.5-0.5v-43C595.2,232.7,595,232.5,594.7,232.3z"/>
		
			<linearGradient id="パス_168_00000044172014975592720810000007671403063739274659_" gradientUnits="userSpaceOnUse" x1="586.1775" y1="-9.8684" x2="586.6484" y2="-10.8752" gradientTransform="matrix(69.425 0 0 38.836 -40246.6562 615.32)">
			<stop  offset="0" style="stop-color:#000000;stop-opacity:0"/>
			<stop  offset="0.99" style="stop-color:#1A1A1A"/>
		</linearGradient>
		
			<path id="パス_168" style="opacity:0.32;fill:url(#パス_168_00000044172014975592720810000007671403063739274659_);enable-background:new    ;" d="
			M456,200l-43.4,24.2c7.3,4.6,36.4,20.2,43.5,25.2l44.9-28.8l-7.4-17.9L456,200z"/>
		<path id="パス_169" class="st19" d="M491.9,226l31.7-18.5l-41.2-23.7L450,200.5"/>
		<path id="パス_170" class="st7" d="M483.6,189.7c0,0,8.3,36.8,8.1,36.4s-41-22.4-41.2-23.2c-0.3-0.8-10.8-38.2-10.8-38.2
			L483.6,189.7z"/>
		<path id="パス_171" class="st20" d="M471.6,182.9l8.5-5.1l10.2,8.4l-7.6,3.2L471.6,182.9z"/>
		<path id="パス_172" class="st17" d="M476.3,177.1c0,0,11.3,3.9,10.3,14.4c0,0,17.6-7.4,21.5-12c3.9-4.6,12.2-14.8,12.2-14.8
			v-34.2c0,0-21.1,33-25.8,37C490.8,170.7,476.3,177.1,476.3,177.1z"/>
		<path id="パス_173" class="st21" d="M534.6,124.9v8.7c0.5,1.3,1.3,2.3,2.3,2.2c3.4-0.4,7.5-5.5,7.5-5.5l0.6-8L534.6,124.9z"/>
		<path id="パス_174" class="st16" d="M551.3,105c-2.2-4.7-6.4-5.5-10.7-4.7c-1-0.8-2.2-1.3-3.3-1.5c-3.8-0.9-7.9,0.4-10.4,3.4
			c-1.1-0.1-2.4,0-3.6,0.5c-3.3,1.4-3.7,4.8-2.9,7.9v0.4c0.4,3.4,2.5,6.2,5.6,7.6l17.1,8.5c1.8-1,3.4-2.4,4.6-4.2
			c0.4-0.6,0.6-1.4,0.8-2.3l0.4-0.4C552.3,116.1,553.3,110.3,551.3,105L551.3,105z"/>
		<path id="パス_175" class="st20" d="M525.9,114.3c0.4,1.8,3.4,19.1,11.2,17.6c7.8-1.5,8.3-13,8.3-13s-7-1.9-7.6-4.6
			c-0.6-2.7-0.3-3.8-3.7-4.5C530.6,109.2,525.1,111.3,525.9,114.3z"/>
		<path id="パス_176" class="st22" d="M519,166.4l-1.1-16.8l-5.1,24.3L519,166.4z"/>
		<path id="パス_177" class="st20" d="M519.6,195.2c-0.6,0.1-1.4,0.3-1.9,0.6c-1.8,0.9-3.9,1.5-5.7,2.3c-3.1,1.8-5.5,4.5-7,7.5
			c-0.4,0.8-1.9,3.8-1.1,4.6s2.7,0,2.7,0s0,1.7,0.5,2c0.5,0.4,2.3-1,2.3-1s0.8,2,1.9,1.5c1.1-0.5,3.1-3.4,3.1-3.4s-0.3,2.3,0.8,2.3
			c1,0,5.2-5.7,5.2-5.7l8.9-4.7c0,0-2.7-2.8-2.9-3.1c-1.1-1.1-2.5-2.2-4.2-2.8C521.3,195,520.4,195,519.6,195.2L519.6,195.2z"/>
		<path id="パス_178" class="st12" d="M518.1,202.5c-2,2.2-3.6,4.7-4.5,7.5c0,0.4,0.4,0.5,0.5,0.1c0.9-2.7,2.3-5.2,4.2-7.3
			C518.7,202.7,518.3,202.3,518.1,202.5z"/>
		<path id="パス_179" class="st12" d="M515.5,200.9c-3.2,2.9-5.5,6.7-6.5,10.8c0,0.1,0.1,0.3,0.3,0.3s0.3,0,0.3-0.1
			c1-4.1,3.2-7.8,6.4-10.6C516.2,201.1,515.8,200.6,515.5,200.9z"/>
		<path id="パス_180" class="st12" d="M512.9,200.3c-3.2,2.7-5.5,6.2-6.7,10.2c0,0.4,0.4,0.5,0.5,0.1c1.3-3.8,3.6-7.3,6.6-9.9
			C513.5,200.4,513.1,200,512.9,200.3z"/>
		<path id="パス_181" class="st17" d="M558.9,166c0,0-3.3,20.7-7.6,25.5c-4.3,4.8-23.5,13.2-23.5,13.2s-4.7-8.4-9.9-10.4
			c0,0,19.6-10.9,20-13.1"/>
		<path id="パス_182" class="st22" d="M542.9,152.1c-0.4,4.5-0.8,8.9-1.4,13.4c-0.4,3.9-1,7.9-2.2,11.7c-1.4,4.1-6.9,6.5-10.3,8.8
			c-3.4,2.3-7.4,4.7-11.1,7c-0.9,0.5,0,1.8,0.8,1.3c4.3-2.7,8.7-5.3,12.9-8.1c2.9-1.9,7.3-3.8,8.8-7c1.4-3.9,2.2-8.1,2.5-12.3
			c0.8-4.7,1.3-9.7,1.7-14.5C544.4,151.1,542.9,151.1,542.9,152.1z"/>
		<path id="パス_183" class="st23" d="M139.7,61c-2.9,1.7-4.7,4.7-4.7,8v227.5c-0.4,4.7,5,8.9,9.2,6.5l93.2-53
			c3.7-2.2,174.3-98,174.3-102.3L421-90.7c0.1-2.4-1.8-4.6-4.3-4.6c-0.8,0-1.7,0.1-2.4,0.5C372.6-71.2,158.6,49.9,139.7,61z"/>
		<path id="パス_184" class="st24" d="M158.1,82v190.9l20.5-13.1V70.2L158.1,82z"/>
		<path id="パス_185" class="st25" d="M186.1,40.8l-42.5,24.9c-0.9,0.5-1.4,1.4-1.4,2.3v227.2c0,1,0.9,1.8,1.9,1.8
			c0.4,0,0.6-0.1,0.9-0.3l266.8-155.3c0,3.8-1.9,7.5-5,9.8c-5.1,3.3-262.6,151.5-262.6,151.5s-7,3.2-9.2-5.2V69
			c0-3.1,1.4-5.9,3.8-7.6C143,58.5,408.1-95.9,408.1-95.9s9.7-3.6,12.9,2.3L213.4,25"/>
		<path id="パス_186" class="st26" d="M429-142c-14.9,8.8-51.8,30.5-62.6,37c-1.9,1.1-3.1,3.2-3.1,5.3V51.5
			c-0.1,2.4,1.7,4.5,4.1,4.7c0.6,0,1.4-0.1,2-0.4l61.9-35.3c2.4-1.1,4.1-3.6,4.1-6.4v-152.6c0-2.3-1.9-4.2-4.2-4.2
			C430.4-142.6,429.6-142.4,429-142L429-142z"/>
		<path id="パス_187" class="st27" d="M291.4,94l3.2,72.7c0,0,45.8-12.9,48.9-77.4l-2-13.2L291.4,94z"/>
		<path id="パス_188" class="st26" d="M291.4,94l12.5-68.2c0,0,33,1.8,35,54.7L291.4,94z"/>
		<path id="パス_189" class="st28" d="M283.5,179.9c-2.4,0-4.7-0.3-7-0.6c-15.8-2.8-28.6-14.5-36.4-33c-7.3-17.4-9.2-39.1-5.2-61
			c8.3-47.2,39.7-79.7,71.4-74c15.8,2.8,28.6,14.5,36.4,33c7.3,17.4,9.2,39.1,5.2,61l0,0c-3.9,21.9-13.1,41.5-25.8,55.4
			C310.4,173.3,297,179.9,283.5,179.9z M299.3,25.5c-21.6,0-44,27.1-50.3,62.4c-3.4,19.1-1.9,37.9,4.3,52.7
			c5.7,13.7,14.9,22.4,25.6,24.3c10.7,1.9,22.3-3.1,32.5-14.1c10.9-11.7,18.8-28.9,22.3-48l0,0c3.4-19.1,1.9-37.9-4.3-52.7
			c-5.7-13.7-14.8-22.4-25.6-24.3C302.3,25.5,300.8,25.4,299.3,25.5L299.3,25.5z"/>
		<line id="線_13" class="st29" x1="374.5" y1="-90.7" x2="423.8" y2="-118.8"/>
		<line id="線_14" class="st29" x1="374.5" y1="-79.5" x2="423.8" y2="-107.6"/>
		<line id="線_15" class="st29" x1="373.4" y1="-65.5" x2="422.5" y2="-93.5"/>
		<line id="線_16" class="st29" x1="373.4" y1="-54.3" x2="422.5" y2="-82.3"/>
		<line id="線_17" class="st29" x1="378.1" y1="-6.1" x2="427.2" y2="-34.1"/>
		<line id="線_18" class="st29" x1="378.1" y1="5.1" x2="427.2" y2="-22.9"/>
		<line id="線_19" class="st29" x1="376.8" y1="19.3" x2="426.1" y2="-8.9"/>
		<line id="線_20" class="st29" x1="376.8" y1="30.5" x2="426.1" y2="2.3"/>
		<path id="パス_190" class="st7" d="M377.9-15.9c0,0,0.8-21.5,9.9-19.9c9.2,1.7,9,5.5,14.9,0c5.9-5.5,2.9-20.5,12.1-20.5
			s7.9,17.3,7.9,17.3L377.9-15.9z"/>
		<path id="パス_191" class="st24" d="M189.6,65.8v155.9l16.8-10.7V56.2L189.6,65.8z"/>
		<path id="パス_192" class="st27" d="M106.6,169.1l99.7-57.4c2.5-1.4,5.7-0.6,7.1,1.9c0.5,0.8,0.8,1.7,0.6,2.7v76
			c0,2.9-1.7,5.7-4.2,7.3l-98.1,55.4c-2.9,1.8-6.7,0.8-8.5-2.2c-0.6-1-0.9-2-0.9-3.2v-72.9C102.4,173.5,104,170.7,106.6,169.1
			L106.6,169.1z"/>
		<line id="線_21" class="st30" x1="154.8" y1="171.5" x2="204.1" y2="143.5"/>
		<line id="線_22" class="st30" x1="154.8" y1="182.7" x2="204.1" y2="154.7"/>
		<line id="線_23" class="st30" x1="153.5" y1="196.8" x2="202.8" y2="168.7"/>
		<line id="線_24" class="st30" x1="153.5" y1="208" x2="202.8" y2="179.9"/>
		<path id="パス_193" class="st7" d="M115.7,218.2V243l6.5-4.2v-24.3C120.1,215.7,117.9,216.8,115.7,218.2z"/>
		<path id="パス_194" class="st7" d="M128.9,202.3v33.6l6.5-4.2v-32.6L128.9,202.3z"/>
		<path id="パス_195" class="st7" d="M141.8,184.9v44l6.5-4.2v-42.5C146.3,183.2,144.1,184.1,141.8,184.9z"/>
		<path id="パス_196" class="st7" d="M671,34.4c-0.4-0.3-0.8-0.3-1.3-0.1c-0.5,0.1-0.9,0.6-0.9,1.1v0.1c-0.5,0.5-1.5,1.1-1.8,1.3
			c-0.8,0.6-1.5,1.4-2.3,2c-1.3,1.1-2.3,2.3-3.6,3.7l-2.8-5.2c-0.8-1.4-2.7-0.1-2,1.1l3.6,6.7c0.4,0.5,1,0.8,1.7,0.4
			c0.1,0,0.1-0.1,0.3-0.3c1.8-2,3.7-3.9,5.6-5.7c1.1-1,3.7-2.3,4.1-3.9C671.7,35.2,671.5,34.7,671,34.4L671,34.4z"/>
		<path id="パス_197" class="st7" d="M632.4,66.7l-6.1,6.2c-1.1,1.3-0.9,1.3-1.7-0.3l-2-3.4c-0.4-0.5-1.1-0.6-1.7-0.3
			c-0.5,0.4-0.6,0.9-0.4,1.4c0.9,1.7,2.5,6.6,5.1,6c1.5-0.4,2.5-2,3.6-3.1l4.8-5c0.5-0.5,0.4-1.3,0-1.7
			C633.5,66.2,632.8,66.2,632.4,66.7z"/>
		<path id="パス_198" class="st7" d="M668,135.7c-0.8,0.8-1.5,1.4-2.3,2c-0.5-1.1-0.9-2.2-1.3-3.2c-0.4-1.1-2.8-0.8-2.3,0.6
			c0.5,1.4,1.1,2.8,1.7,4.2c-1,0.8-2,1.5-3.1,2.3c-1,0.8,0,2.9,1.1,2c1.1-0.9,1.9-1.4,2.9-2.2c0.5,1.1,1,2.3,1.7,3.6
			c0.6,1.3,2.7,0.1,2-1.1c-0.6-1.4-1.1-2.5-1.8-3.8c1-0.9,2-1.7,3.1-2.5C670.7,136.6,669.2,134.7,668,135.7z"/>
		
			<linearGradient id="パス_199_00000016060271443682731250000008678288118591381655_" gradientUnits="userSpaceOnUse" x1="584.4414" y1="-10.2871" x2="584.8104" y2="-11.3817" gradientTransform="matrix(59.491 0 0 34.95 -34510.9375 699.3071)">
			<stop  offset="0" style="stop-color:#000000;stop-opacity:0"/>
			<stop  offset="0.99" style="stop-color:#006837"/>
		</linearGradient>
		
			<path id="パス_199" style="opacity:0.32;fill:url(#パス_199_00000016060271443682731250000008678288118591381655_);enable-background:new    ;" d="
			M304.1,316.2l-50.4,33.5l-25.3-14.9l50.8-29.5"/>
		<path id="パス_200" class="st8" d="M186.9,169.7c-2.4,0-4.7-0.3-7-0.8c-10.7-2.3-19.7-9-24.9-18.6c-11.2-20.9-6-46.8,12.5-61.7
			c15.5-12.7,38.4-10.6,51.2,5c1.7,1.9,2.9,4.1,4.2,6.2c5.5,10.1,7.1,21.8,4.7,33C223.2,154.6,205.7,169.7,186.9,169.7z M190.7,88.2
			c-6.7,0.1-13.2,2.4-18.5,6.6c-15.5,12.5-19.9,34.2-10.4,51.8c4.1,7.6,11.3,13,19.7,14.9c17.2,3.4,34.4-9.9,38.4-30
			c2-9.4,0.6-19.2-4.1-27.7c-4.1-7.6-11.3-13-19.7-14.9C194.4,88.5,192.5,88.2,190.7,88.2L190.7,88.2z"/>
		<path id="パス_201" class="st8" d="M225.2,140.9l62.4,30.8c0,0,2.5,8.1-2.9,10.2c-5.5,2-69-32.2-69-32.2"/>
		<g id="グループ_202" transform="translate(141.019 190.185)" class="st32">
			<path id="パス_202" d="M45.9-20.5c-2.4,0-4.7-0.3-7-0.8c-10.7-2.3-19.7-9-24.9-18.6C2.6-60.7,8-86.7,26.4-101.4
				c15.5-12.7,38.4-10.6,51.2,5c1.7,1.9,2.9,4.1,4.2,6.2c5.5,10.1,7.1,21.8,4.7,33C82.2-35.6,64.7-20.5,45.9-20.5z M49.7-102
				c-6.7,0.1-13.2,2.4-18.5,6.6C15.7-82.9,11.4-61.1,20.7-43.5c4.1,7.6,11.3,13,19.7,14.9c17.2,3.4,34.4-9.9,38.4-30
				c2-9.4,0.6-19.2-4.1-27.7c-4.1-7.6-11.3-13-19.7-14.9C53.4-101.7,51.5-101.8,49.7-102L49.7-102z"/>
			<path id="パス_203" d="M84.2-49.3l62.4,30.8c0,0,2.5,8.1-2.9,10.2s-69-32.2-69-32.2"/>
		</g>
		<path id="パス_204" class="st33" d="M259.3,159c-3.7-1.9-7.4-3.8-10.9-6c-0.6-1.4-1.4-2.7-2.2-4.1c-1-2.2-3.3-3.3-5.7-3.1
			c-1,0.1-1.8,1.1-1.5,2.3c0.1,0.9,0.9,1.5,1.7,1.5l0.3,0.4c-4.5,0.3-12.5,0.9-10.7,5.2c-0.1,0.1-0.3,0.3-0.5,0.4
			c-0.9,1.1-0.9,2.8,0.3,3.8c0.8,0.8,1.9,1.1,3.1,0.8c0.8,1.4,2.4,2,3.9,1.4l1.1-0.4c-0.1,0.9,0.5,1.8,1.4,1.9c0.3,0,0.4,0,0.6,0
			l3.7-0.8c8.4,2.7,12.5,3.6,15.7,5.7c1.3,0.9,0,1.3,0,0c0.6-0.8,0.5-1.9-0.3-2.4c0,0-0.1,0-0.1-0.1l-0.4-0.3c0.8-0.6,1-1.7,0.4-2.5
			c0,0,0,0-0.1-0.1l-0.5-0.5c1.1-0.1,1.8-1.3,1.7-2.3C260.2,159.9,259.8,159.4,259.3,159L259.3,159z"/>
		<path id="パス_205" class="st2" d="M302.1,287.4l2,28.8l-3.7,3.1l-3.9-1c0,0,0.5-7.6-0.9-9.3c-1.4-1.7-3.8,6.6-5.2,6.5
			c-1.4-0.1-17.7-4.5-17.9-6.4c-0.3-2.7,3.3-5.7,10.3-4.1c7.5,1.8,8.8-6.6,9.9-14.6"/>
		<path id="パス_206" class="st4" d="M290.4,293.2c0,0,7,3.1,19.3-4.7c0,0-4.2-38.2-3.8-44.7c0.4-6.6,7.6-54-1.4-64.4
			c-9-10.4-25.2,90-24.6,90.6"/>
		<path id="パス_207" class="st34" d="M296.4,310.1l-0.6-1.1c-1-1-2.5-1.4-3.9-0.9c-1.9,0.9-1.7,7.8-1.7,7.8l6.7-2.5
			C296.9,312.3,296.7,311.1,296.4,310.1z"/>
		<path id="パス_208" class="st2" d="M279.9,301.6l-0.8,28.8l-3.9,2.8l-3.9-1.4c0,0,1.3-7.5,0-9.4c-1.3-1.9-4.5,6.2-5.7,6
			c-1.4-0.1-17.2-6.1-17.2-8c0-2.7,3.9-5.3,10.6-3.1c7.3,2.5,9.4-5.7,11.3-13.6"/>
		<path id="パス_209" class="st34" d="M272,323.5l-0.5-1.1c-0.9-1.1-2.4-1.7-3.8-1.3c-2,0.8-2.3,7.5-2.3,7.5l7-1.9
			C272.4,325.6,272.4,324.5,272,323.5z"/>
		<path id="パス_210" class="st4" d="M277.6,190.6c0,0-12.1,32.6-14.8,46.6c-2.7,14.1-2.8,67-1.9,68.2c1,1.4,12.7,3.9,20.6,3.9
			c8,0,6.9-62.5,6.9-62.5s21.5-54.6,15.8-60.6C298.4,180.4,277.6,190.6,277.6,190.6z"/>
		<path id="パス_211" class="st2" d="M277.1,191.1c10.9,3.4,24.8-0.6,31.6-10.1c-1.3-15.4-3.9-40.9-7.9-44.7
			c-5.7-5.5-18.1,2.3-22.5,10.1c-2.5,5.9-4.8,12-6.6,18.1l-16.8-9.5l-5.1,12c0,0,11.6,21.8,27.1,16.8L277.1,191.1z"/>
		<path id="パス_212" class="st7" d="M287.7,163c0-0.4-0.4-0.6-0.6-0.6c-0.4,0-0.6,0.3-0.6,0.6c0.4,5-0.5,9.9-2.5,14.5
			c-1.8,3.8-5.5,6.4-9.7,6.9c-0.4,0-0.6,0.4-0.6,0.6c0,0.4,0.3,0.6,0.6,0.6c4.5-0.4,8.4-3.1,10.6-7
			C287.4,173.9,287.7,168.2,287.7,163z"/>
		<path id="パス_213" class="st35" d="M281.7,108.5c-0.9,0.1-2.3,1.7-4.5,6.6c-2.2,5.1,2.9,11.5,5.2,12.7c2.2,1.9,3.9,4.1,5.5,6.6
			c0,0,8.1,2,13.6-8C307.2,116.4,295,105.6,281.7,108.5z"/>
		<path id="パス_214" class="st33" d="M279.4,114c0,0-4.1,16.7,1.9,20.5s14.3-6.4,15-10.4C297.2,120.1,292.8,111.3,279.4,114z"/>
		<path id="パス_215" class="st35" d="M279.4,114c0,0-1,10.9,4.7,13.4c5.7,2.4,5.7,5.9,5.7,5.9s10.3-5.5,11.5-10.4
			C302.5,117.8,287.3,109.6,279.4,114z"/>
		<path id="パス_216" class="st35" d="M298.4,127.2c-2,16.4,2,37.4-4.7,52.7c-0.4,0.9-1.3,5.2-2,5.2l16.4-9
			c6.6-4.1,11.5-6.7,9-17.2c-2.3-10.4-15.7-32.6-15.7-32.6L298.4,127.2z"/>
		<path id="パス_217" class="st7" d="M273.2,156.3c-1,4.3-1.8,8.8-2.3,13.2c0,0.8,1.1,0.8,1.3,0c0.5-4.3,1.4-8.7,2.3-12.9
			C274.7,155.8,273.4,155.6,273.2,156.3z"/>
		<path id="パス_218" class="st36" d="M296.5,134.6l-1.5-3.3c-3.1,1.5-6.2,2.9-9.4,4.1c-3.9,1.1-2.8,5.7-2.8,5.7
			S291.8,140.9,296.5,134.6z"/>
	</g>
</g>
</svg>
